<mxfile host="app.diagrams.net" modified="2023-07-06T12:56:52.295Z" agent="Mozilla/5.0 (Windows NT 10.0; Win64; x64) AppleWebKit/537.36 (KHTML, like Gecko) Chrome/114.0.0.0 Safari/537.36 Edg/114.0.1823.67" etag="QOzi0HMBDXrN0w_7F9gh" version="21.6.1" type="github">
  <diagram name="Page-1" id="LHZIOedNrC3mVdB6rA1J">
    <mxGraphModel dx="1379" dy="806" grid="1" gridSize="10" guides="1" tooltips="1" connect="1" arrows="1" fold="1" page="1" pageScale="1" pageWidth="850" pageHeight="1100" math="0" shadow="0">
      <root>
        <mxCell id="0" />
        <mxCell id="1" parent="0" />
        <mxCell id="PwL6Hwom61lS3OqMOseY-3" style="edgeStyle=orthogonalEdgeStyle;rounded=0;orthogonalLoop=1;jettySize=auto;html=1;exitX=1;exitY=0.5;exitDx=0;exitDy=0;entryX=0;entryY=0.5;entryDx=0;entryDy=0;" edge="1" parent="1" source="PwL6Hwom61lS3OqMOseY-1" target="PwL6Hwom61lS3OqMOseY-2">
          <mxGeometry relative="1" as="geometry" />
        </mxCell>
        <mxCell id="PwL6Hwom61lS3OqMOseY-1" value="Ввод: longURL" style="rounded=0;whiteSpace=wrap;html=1;" vertex="1" parent="1">
          <mxGeometry x="120" y="110" width="120" height="60" as="geometry" />
        </mxCell>
        <mxCell id="PwL6Hwom61lS3OqMOseY-5" style="edgeStyle=orthogonalEdgeStyle;rounded=0;orthogonalLoop=1;jettySize=auto;html=1;exitX=1;exitY=0.5;exitDx=0;exitDy=0;entryX=0;entryY=0.5;entryDx=0;entryDy=0;" edge="1" parent="1" source="PwL6Hwom61lS3OqMOseY-2" target="PwL6Hwom61lS3OqMOseY-4">
          <mxGeometry relative="1" as="geometry" />
        </mxCell>
        <mxCell id="PwL6Hwom61lS3OqMOseY-6" value="да" style="edgeLabel;html=1;align=center;verticalAlign=middle;resizable=0;points=[];" vertex="1" connectable="0" parent="PwL6Hwom61lS3OqMOseY-5">
          <mxGeometry x="-0.18" y="1" relative="1" as="geometry">
            <mxPoint y="-9" as="offset" />
          </mxGeometry>
        </mxCell>
        <mxCell id="PwL6Hwom61lS3OqMOseY-8" style="edgeStyle=orthogonalEdgeStyle;rounded=0;orthogonalLoop=1;jettySize=auto;html=1;exitX=0.5;exitY=1;exitDx=0;exitDy=0;entryX=0.5;entryY=0;entryDx=0;entryDy=0;" edge="1" parent="1" source="PwL6Hwom61lS3OqMOseY-2" target="PwL6Hwom61lS3OqMOseY-7">
          <mxGeometry relative="1" as="geometry" />
        </mxCell>
        <mxCell id="PwL6Hwom61lS3OqMOseY-9" value="нет&lt;br&gt;" style="edgeLabel;html=1;align=center;verticalAlign=middle;resizable=0;points=[];" vertex="1" connectable="0" parent="PwL6Hwom61lS3OqMOseY-8">
          <mxGeometry x="-0.2286" y="-3" relative="1" as="geometry">
            <mxPoint x="3" as="offset" />
          </mxGeometry>
        </mxCell>
        <mxCell id="PwL6Hwom61lS3OqMOseY-2" value="longURL в БД?" style="rhombus;whiteSpace=wrap;html=1;" vertex="1" parent="1">
          <mxGeometry x="350" y="90" width="110" height="100" as="geometry" />
        </mxCell>
        <mxCell id="PwL6Hwom61lS3OqMOseY-4" value="Возврат shortURL" style="rounded=0;whiteSpace=wrap;html=1;" vertex="1" parent="1">
          <mxGeometry x="560" y="110" width="120" height="60" as="geometry" />
        </mxCell>
        <mxCell id="PwL6Hwom61lS3OqMOseY-11" style="edgeStyle=orthogonalEdgeStyle;rounded=0;orthogonalLoop=1;jettySize=auto;html=1;exitX=0.5;exitY=1;exitDx=0;exitDy=0;entryX=0.5;entryY=0;entryDx=0;entryDy=0;" edge="1" parent="1" source="PwL6Hwom61lS3OqMOseY-7" target="PwL6Hwom61lS3OqMOseY-10">
          <mxGeometry relative="1" as="geometry" />
        </mxCell>
        <mxCell id="PwL6Hwom61lS3OqMOseY-7" value="Генерация нового ID" style="rounded=0;whiteSpace=wrap;html=1;" vertex="1" parent="1">
          <mxGeometry x="345" y="260" width="125" height="50" as="geometry" />
        </mxCell>
        <mxCell id="PwL6Hwom61lS3OqMOseY-13" style="edgeStyle=orthogonalEdgeStyle;rounded=0;orthogonalLoop=1;jettySize=auto;html=1;exitX=0.5;exitY=1;exitDx=0;exitDy=0;entryX=0.5;entryY=0;entryDx=0;entryDy=0;" edge="1" parent="1" source="PwL6Hwom61lS3OqMOseY-10" target="PwL6Hwom61lS3OqMOseY-12">
          <mxGeometry relative="1" as="geometry" />
        </mxCell>
        <mxCell id="PwL6Hwom61lS3OqMOseY-10" value="Превращение ID в shortURL" style="rounded=0;whiteSpace=wrap;html=1;" vertex="1" parent="1">
          <mxGeometry x="347.5" y="360" width="120" height="60" as="geometry" />
        </mxCell>
        <mxCell id="PwL6Hwom61lS3OqMOseY-12" value="Сохранение ID, shortURL и longURL в БД" style="rounded=0;whiteSpace=wrap;html=1;" vertex="1" parent="1">
          <mxGeometry x="347.5" y="470" width="120" height="60" as="geometry" />
        </mxCell>
        <mxCell id="PwL6Hwom61lS3OqMOseY-50" value="" style="shape=table;startSize=0;container=1;collapsible=0;childLayout=tableLayout;fontSize=16;" vertex="1" parent="1">
          <mxGeometry x="115" y="570" width="580" height="120" as="geometry" />
        </mxCell>
        <mxCell id="PwL6Hwom61lS3OqMOseY-51" value="" style="shape=tableRow;horizontal=0;startSize=0;swimlaneHead=0;swimlaneBody=0;strokeColor=inherit;top=0;left=0;bottom=0;right=0;collapsible=0;dropTarget=0;fillColor=none;points=[[0,0.5],[1,0.5]];portConstraint=eastwest;fontSize=16;" vertex="1" parent="PwL6Hwom61lS3OqMOseY-50">
          <mxGeometry width="580" height="40" as="geometry" />
        </mxCell>
        <mxCell id="PwL6Hwom61lS3OqMOseY-52" value="&lt;b&gt;id&lt;/b&gt;" style="shape=partialRectangle;html=1;whiteSpace=wrap;connectable=0;strokeColor=inherit;overflow=hidden;fillColor=none;top=0;left=0;bottom=0;right=0;pointerEvents=1;fontSize=16;" vertex="1" parent="PwL6Hwom61lS3OqMOseY-51">
          <mxGeometry width="130" height="40" as="geometry">
            <mxRectangle width="130" height="40" as="alternateBounds" />
          </mxGeometry>
        </mxCell>
        <mxCell id="PwL6Hwom61lS3OqMOseY-53" value="&lt;b&gt;shortURL&lt;/b&gt;" style="shape=partialRectangle;html=1;whiteSpace=wrap;connectable=0;strokeColor=inherit;overflow=hidden;fillColor=none;top=0;left=0;bottom=0;right=0;pointerEvents=1;fontSize=16;" vertex="1" parent="PwL6Hwom61lS3OqMOseY-51">
          <mxGeometry x="130" width="140" height="40" as="geometry">
            <mxRectangle width="140" height="40" as="alternateBounds" />
          </mxGeometry>
        </mxCell>
        <mxCell id="PwL6Hwom61lS3OqMOseY-54" value="&lt;b&gt;longURL&lt;/b&gt;" style="shape=partialRectangle;html=1;whiteSpace=wrap;connectable=0;strokeColor=inherit;overflow=hidden;fillColor=none;top=0;left=0;bottom=0;right=0;pointerEvents=1;fontSize=16;" vertex="1" parent="PwL6Hwom61lS3OqMOseY-51">
          <mxGeometry x="270" width="310" height="40" as="geometry">
            <mxRectangle width="310" height="40" as="alternateBounds" />
          </mxGeometry>
        </mxCell>
        <mxCell id="PwL6Hwom61lS3OqMOseY-55" value="" style="shape=tableRow;horizontal=0;startSize=0;swimlaneHead=0;swimlaneBody=0;strokeColor=inherit;top=0;left=0;bottom=0;right=0;collapsible=0;dropTarget=0;fillColor=none;points=[[0,0.5],[1,0.5]];portConstraint=eastwest;fontSize=16;" vertex="1" parent="PwL6Hwom61lS3OqMOseY-50">
          <mxGeometry y="40" width="580" height="40" as="geometry" />
        </mxCell>
        <mxCell id="PwL6Hwom61lS3OqMOseY-56" value="2082349899" style="shape=partialRectangle;html=1;whiteSpace=wrap;connectable=0;strokeColor=inherit;overflow=hidden;fillColor=none;top=0;left=0;bottom=0;right=0;pointerEvents=1;fontSize=16;" vertex="1" parent="PwL6Hwom61lS3OqMOseY-55">
          <mxGeometry width="130" height="40" as="geometry">
            <mxRectangle width="130" height="40" as="alternateBounds" />
          </mxGeometry>
        </mxCell>
        <mxCell id="PwL6Hwom61lS3OqMOseY-57" value="xn9djfhjh" style="shape=partialRectangle;html=1;whiteSpace=wrap;connectable=0;strokeColor=inherit;overflow=hidden;fillColor=none;top=0;left=0;bottom=0;right=0;pointerEvents=1;fontSize=16;" vertex="1" parent="PwL6Hwom61lS3OqMOseY-55">
          <mxGeometry x="130" width="140" height="40" as="geometry">
            <mxRectangle width="140" height="40" as="alternateBounds" />
          </mxGeometry>
        </mxCell>
        <mxCell id="PwL6Hwom61lS3OqMOseY-58" value="https://ru.ozontech.ru/wiki/Sytem_design" style="shape=partialRectangle;html=1;whiteSpace=wrap;connectable=0;strokeColor=inherit;overflow=hidden;fillColor=none;top=0;left=0;bottom=0;right=0;pointerEvents=1;fontSize=16;" vertex="1" parent="PwL6Hwom61lS3OqMOseY-55">
          <mxGeometry x="270" width="310" height="40" as="geometry">
            <mxRectangle width="310" height="40" as="alternateBounds" />
          </mxGeometry>
        </mxCell>
        <mxCell id="PwL6Hwom61lS3OqMOseY-59" value="" style="shape=tableRow;horizontal=0;startSize=0;swimlaneHead=0;swimlaneBody=0;strokeColor=inherit;top=0;left=0;bottom=0;right=0;collapsible=0;dropTarget=0;fillColor=none;points=[[0,0.5],[1,0.5]];portConstraint=eastwest;fontSize=16;" vertex="1" parent="PwL6Hwom61lS3OqMOseY-50">
          <mxGeometry y="80" width="580" height="40" as="geometry" />
        </mxCell>
        <mxCell id="PwL6Hwom61lS3OqMOseY-60" value="" style="shape=partialRectangle;html=1;whiteSpace=wrap;connectable=0;strokeColor=inherit;overflow=hidden;fillColor=none;top=0;left=0;bottom=0;right=0;pointerEvents=1;fontSize=16;" vertex="1" parent="PwL6Hwom61lS3OqMOseY-59">
          <mxGeometry width="130" height="40" as="geometry">
            <mxRectangle width="130" height="40" as="alternateBounds" />
          </mxGeometry>
        </mxCell>
        <mxCell id="PwL6Hwom61lS3OqMOseY-61" value="" style="shape=partialRectangle;html=1;whiteSpace=wrap;connectable=0;strokeColor=inherit;overflow=hidden;fillColor=none;top=0;left=0;bottom=0;right=0;pointerEvents=1;fontSize=16;" vertex="1" parent="PwL6Hwom61lS3OqMOseY-59">
          <mxGeometry x="130" width="140" height="40" as="geometry">
            <mxRectangle width="140" height="40" as="alternateBounds" />
          </mxGeometry>
        </mxCell>
        <mxCell id="PwL6Hwom61lS3OqMOseY-62" value="" style="shape=partialRectangle;html=1;whiteSpace=wrap;connectable=0;strokeColor=inherit;overflow=hidden;fillColor=none;top=0;left=0;bottom=0;right=0;pointerEvents=1;fontSize=16;" vertex="1" parent="PwL6Hwom61lS3OqMOseY-59">
          <mxGeometry x="270" width="310" height="40" as="geometry">
            <mxRectangle width="310" height="40" as="alternateBounds" />
          </mxGeometry>
        </mxCell>
      </root>
    </mxGraphModel>
  </diagram>
</mxfile>
